<?xml version="1.0" encoding="utf-8"?>
<!-- Generator: Adobe Illustrator 24.3.0, SVG Export Plug-In . SVG Version: 6.00 Build 0)  -->
<svg version="1.1" id="Layer_1" xmlns="http://www.w3.org/2000/svg" xmlns:xlink="http://www.w3.org/1999/xlink" x="0px" y="0px"
	 viewBox="0 0 1080 194.9" style="enable-background:new 0 0 1080 194.9;" xml:space="preserve">
<style type="text/css">
	.st0{fill:#416AD9;}
	.st1{fill:#4D4D4D;}
</style>
<path class="st0" d="M273.5,65.3H263v63.5h10.5c20.3,0,29.2-11.5,29.2-31.2C302.7,77.4,294.6,65.3,273.5,65.3z"/>
<path class="st0" d="M169.3,63.8v15.1h55.8v35.7h-55.8v16.1h55.8v36.3h35.4c43.9,0,75.3-17.7,78.3-62.4h55.3v90.3H169.3l0-27.9H124
	v-139h45.4l0-27.9h224.8v89.5h-55.4c-3.3-44.1-34.7-61.6-78.2-61.6h-35.4v35.9H169.3z"/>
<path class="st0" d="M68.5,53.7v113.2H35.9V53.7H0V27.9h104.4v25.8H68.5z"/>
<path class="st1" d="M475.4,166.9h-56.8v-139h47.3c12.7,0,25,1,34.3,5.8s17.7,13.9,17.7,29.2c0,15.3-9.9,27-20.3,30.6V94
	c17.3,4.2,28.8,15.9,28.8,33C526.3,156.8,501.3,166.9,475.4,166.9z M464.5,52.1H451v32h12.7c11.3,0,22.2-2.6,22.2-16.3
	C485.8,54.7,475.4,52.1,464.5,52.1z M468.9,106.7H451v35.5h17.9c12.1,0,24.4-3.2,24.4-17.7S481,106.7,468.9,106.7L468.9,106.7z"/>
<path class="st1" d="M610.7,169.3c-41.3,0-73.7-26.8-73.7-71.7s32.4-71.9,73.7-71.9c41.3,0,73.7,27,73.7,71.9
	S652.1,169.3,610.7,169.3z M610.7,53.5c-23.2,0-40.7,16.7-40.7,43.3c0,26.6,17.5,43.5,40.7,43.5c23.2,0,40.7-16.9,40.7-43.5
	C651.4,70.4,633.9,53.5,610.7,53.5L610.7,53.5z"/>
<path class="st1" d="M788.5,166.9l-9.9-28H729l-9.9,28h-33.8l52.4-139.2h33.8l52.4,139.2H788.5z M753.8,63.5l-17.3,50h34.7
	L753.8,63.5z"/>
<path class="st1" d="M907.9,166.9l-29.2-53.2h-10.3v53.2h-32.6v-139h50c26.6,0,52,11.3,52,41.7c0,26.4-16.9,36.7-27.2,39.9
	l35.3,57.4H907.9z M881.1,53.1h-12.9v35.7h12.9c12.1,0,23.8-3.6,23.8-17.9C904.9,56.3,893.2,53.1,881.1,53.1L881.1,53.1z"/>
<path class="st1" d="M1003.8,166.9h-47.1v-139h47.1c43.7,0,76.2,23.2,76.2,69.5C1080,143.9,1047.8,166.9,1003.8,166.9z M1005.7,54.9
	h-16.5v84.4h16.5c25.8,0,41.3-16.1,41.3-41.9C1047,71.2,1032,54.9,1005.7,54.9z"/>
</svg>
